<svg width="395.201" height="48.195" viewBox="0 0 395.201 48.195" xmlns="http://www.w3.org/2000/svg"><g fill="#fff"><path d="M2.853 30.922h5.012V20.05h11.567v-4.395H7.865V9.099h13.032V4.704H2.853zM37.21 30.922h4.896V11.066h-4.897v2.313c-1.465-1.658-3.624-2.776-6.207-2.776-5.514 0-9.562 4.125-9.562 10.41s4.048 10.372 9.562 10.372c2.583 0 4.742-1.08 6.207-2.738zm-5.129-3.894c-3.2 0-5.668-2.198-5.668-6.015 0-3.855 2.468-6.053 5.668-6.053 2.198 0 4.241 1.118 5.128 3.007v6.092c-.887 1.85-2.93 2.969-5.128 2.969zM45.771 30.922h4.897V19.124c.964-2.969 3.354-3.817 6.284-3.856v-4.665h-.578c-2.622 0-4.55 1.427-5.706 3.547v-3.084H45.77zM58.69 30.922h4.897V11.066H58.69zm-.077-23.21h5.012v-5.09h-5.012zM83.95 31.462c6.052 0 10.178-3.47 10.178-8.521 0-4.434-3.162-7.133-8.56-7.943l-2.236-.347c-2.275-.347-3.431-1.465-3.431-3.007 0-1.58 1.542-2.969 4.164-2.969 2.352 0 4.55 1.041 6.169 3.046l3.2-3.316c-1.89-2.467-5.205-4.24-9.254-4.24-5.86 0-9.484 3.546-9.484 7.98 0 4.049 3.123 6.709 7.75 7.403l2.274.347c3.085.463 4.241 1.735 4.241 3.393 0 2.043-1.696 3.663-4.935 3.663-3.971 0-6.516-2.275-8.02-4.627l-3.277 3.2c1.851 2.815 5.167 5.938 11.22 5.938zM106.121 31.423c3.779 0 6.71-1.735 8.56-3.971l-2.699-3.2c-1.157 1.58-3.2 2.93-5.63 2.93-3.43 0-5.281-1.812-5.783-4.472h14.382c.115-.81.231-1.735.231-2.39 0-5.707-3.778-9.717-9.562-9.717-5.783 0-9.986 4.241-9.986 10.449 0 5.783 4.049 10.371 10.487 10.371zm-.5-16.772c2.66 0 4.433 1.465 4.703 4.049h-9.678c.656-2.622 2.43-4.049 4.974-4.049zM132.342 30.922h4.897V11.066h-4.897v2.313c-1.465-1.658-3.624-2.776-6.207-2.776-5.514 0-9.562 4.125-9.562 10.41s4.048 10.372 9.562 10.372c2.583 0 4.742-1.08 6.207-2.738zm-5.128-3.894c-3.2 0-5.668-2.198-5.668-6.015 0-3.855 2.468-6.053 5.668-6.053 2.198 0 4.241 1.118 5.128 3.007v6.092c-.887 1.85-2.93 2.969-5.128 2.969zM167.97 30.922h4.897V19.24c0-5.09-2.236-8.637-7.403-8.637-3.393 0-5.629 1.388-7.094 3.778-1.08-2.351-3.162-3.778-6.439-3.778-3.084 0-5.05 1.465-6.13 3.239v-2.776h-4.897v19.856h4.897V18.43c.5-1.812 1.966-3.47 4.395-3.47 2.892 0 4.241 1.658 4.241 4.82v11.142h4.897V18.43c.501-1.812 1.928-3.47 4.395-3.47 2.93 0 4.241 1.658 4.241 4.82zM176.263 30.922h4.896V3.547h-4.896zM194.232 31.423c3.779 0 6.709-1.735 8.56-3.971l-2.7-3.2c-1.156 1.58-3.2 2.93-5.628 2.93-3.432 0-5.283-1.812-5.784-4.472h14.382c.115-.81.23-1.735.23-2.39 0-5.707-3.778-9.717-9.561-9.717-5.783 0-9.986 4.241-9.986 10.449 0 5.783 4.048 10.371 10.487 10.371zm-.501-16.772c2.66 0 4.434 1.465 4.704 4.049h-9.678c.656-2.622 2.43-4.049 4.974-4.049zM212.433 31.462c5.59 0 8.714-3.008 8.714-6.593 0-3.47-2.275-5.59-6.825-6.285l-1.773-.27c-1.427-.231-2.198-.77-2.198-1.773 0-1.08.964-1.928 2.815-1.928 1.812 0 3.316.77 4.588 2.12l2.583-3.123c-1.465-1.696-3.855-3.007-6.978-3.007-4.974 0-7.904 2.776-7.904 6.208 0 3.238 2.236 5.282 5.937 5.899l1.774.27c1.889.308 3.084.848 3.084 2.159 0 1.465-1.503 2.313-3.624 2.313-2.352 0-4.588-1.35-5.9-2.969l-2.66 3.085c1.813 2.159 4.666 3.894 8.367 3.894zM230.21 31.462c5.59 0 8.714-3.008 8.714-6.593 0-3.47-2.275-5.59-6.825-6.285l-1.773-.27c-1.427-.231-2.198-.77-2.198-1.773 0-1.08.964-1.928 2.815-1.928 1.812 0 3.315.77 4.588 2.12l2.583-3.123c-1.465-1.696-3.856-3.007-6.979-3.007-4.973 0-7.904 2.776-7.904 6.208 0 3.238 2.237 5.282 5.938 5.899l1.774.27c1.889.308 3.084.848 3.084 2.159 0 1.465-1.504 2.313-3.624 2.313-2.352 0-4.588-1.35-5.9-2.969l-2.66 3.085c1.812 2.159 4.666 3.894 8.367 3.894zM249.146 30.922h5.012V19.856h12.994v11.066h5.012V4.704h-5.012V15.5h-12.994V4.704h-5.012zM285.468 31.462c6.902 0 10.526-4.974 10.526-10.449 0-5.436-3.624-10.41-10.526-10.41-6.901 0-10.525 4.974-10.525 10.41 0 5.475 3.624 10.449 10.525 10.449zm0-16.502c3.2 0 5.553 2.39 5.553 6.053 0 3.702-2.352 6.092-5.553 6.092-3.2 0-5.552-2.39-5.552-6.092 0-3.663 2.352-6.053 5.552-6.053zM298.503 30.922h4.897V19.124c.963-2.969 3.354-3.817 6.284-3.856v-4.665h-.578c-2.622 0-4.55 1.427-5.706 3.547v-3.084h-4.897zM311.422 30.922h4.896V11.066h-4.896zm-.077-23.21h5.012v-5.09h-5.012zM318.596 30.922h16.772V26.99h-10.45l10.218-12.415v-3.508H319.29v3.932h9.6l-10.294 12.415zM346.821 31.462c6.902 0 10.526-4.974 10.526-10.449 0-5.436-3.624-10.41-10.526-10.41-6.901 0-10.526 4.974-10.526 10.41 0 5.475 3.625 10.449 10.526 10.449zm0-16.502c3.2 0 5.552 2.39 5.552 6.053 0 3.702-2.352 6.092-5.552 6.092-3.2 0-5.552-2.39-5.552-6.092 0-3.663 2.352-6.053 5.552-6.053zM359.856 30.922h4.896V18.43c.502-1.812 2.12-3.47 4.55-3.47 2.892 0 4.395 1.658 4.395 4.82v11.142h4.897V19.24c0-5.09-2.39-8.637-7.557-8.637-3.085 0-5.205 1.465-6.285 3.239v-2.776h-4.896z"/></g></svg>