<svg width="395.201" height="48.195" viewBox="0 0 395.201 48.195" xmlns="http://www.w3.org/2000/svg"><g fill="#fff"><path d="M11.721 31.462c6.053 0 10.179-3.47 10.179-8.521 0-4.434-3.162-7.133-8.56-7.943l-2.236-.347c-2.275-.347-3.431-1.465-3.431-3.007 0-1.58 1.542-2.969 4.164-2.969 2.352 0 4.55 1.041 6.169 3.046l3.2-3.316c-1.89-2.467-5.205-4.24-9.254-4.24-5.86 0-9.484 3.546-9.484 7.98 0 4.049 3.123 6.709 7.75 7.403l2.274.347c3.085.463 4.241 1.735 4.241 3.393 0 2.043-1.696 3.663-4.935 3.663-3.971 0-6.516-2.275-8.02-4.627l-3.277 3.2c1.85 2.815 5.167 5.938 11.22 5.938zM25.486 30.922h4.896V11.066h-4.896zm-.077-23.21h5.012v-5.09h-5.012zM44.263 31.385c4.01 0 6.901-1.851 8.829-4.935l-3.47-2.66c-1.08 1.888-2.738 3.238-5.09 3.238-3.393 0-5.629-2.352-5.629-6.015 0-3.701 2.236-6.053 5.63-6.053 2.351 0 4.01 1.35 5.089 3.239l3.47-2.66c-1.928-3.085-4.82-4.936-8.83-4.936-6.593 0-10.333 4.974-10.333 10.41 0 5.398 3.74 10.372 10.334 10.372zM74.76 11.066h-4.896v12.492c-.501 1.812-2.12 3.47-4.55 3.47-2.892 0-4.395-1.658-4.395-4.82V11.066h-4.897v11.682c0 5.09 2.39 8.637 7.557 8.637 3.085 0 5.205-1.465 6.285-3.239v2.776h4.896zM79.387 30.922h4.897V19.124c.964-2.969 3.354-3.817 6.285-3.856v-4.665h-.579c-2.622 0-4.55 1.427-5.706 3.547v-3.084h-4.897zM102.02 31.423c3.778 0 6.708-1.735 8.56-3.971l-2.7-3.2c-1.156 1.58-3.2 2.93-5.629 2.93-3.431 0-5.282-1.812-5.783-4.472h14.381c.116-.81.231-1.735.231-2.39 0-5.707-3.778-9.717-9.562-9.717-5.783 0-9.986 4.241-9.986 10.449 0 5.783 4.049 10.371 10.488 10.371zm-.502-16.772c2.66 0 4.434 1.465 4.704 4.049h-9.677c.655-2.622 2.429-4.049 4.973-4.049zM113.124 30.922h16.772V26.99h-10.449l10.218-12.415v-3.508h-15.847v3.932h9.6l-10.294 12.415zM131.94 30.922h16.771V26.99h-10.448l10.217-12.415v-3.508h-15.847v3.932h9.6L131.94 27.413zM166.486 30.922h4.896V11.066h-4.896v2.313c-1.465-1.658-3.625-2.776-6.208-2.776-5.513 0-9.562 4.125-9.562 10.41s4.049 10.372 9.562 10.372c2.583 0 4.743-1.08 6.208-2.738zm-5.128-3.894c-3.2 0-5.668-2.198-5.668-6.015 0-3.855 2.468-6.053 5.668-6.053 2.197 0 4.24 1.118 5.128 3.007v6.092c-.887 1.85-2.93 2.969-5.128 2.969zM199.027 30.922h4.897V11.066h-4.897v2.313c-1.465-1.658-3.624-2.776-6.207-2.776-5.514 0-9.562 4.125-9.562 10.41s4.048 10.372 9.562 10.372c2.583 0 4.742-1.08 6.207-2.738zm-5.128-3.894c-3.2 0-5.668-2.198-5.668-6.015 0-3.855 2.468-6.053 5.668-6.053 2.198 0 4.241 1.118 5.128 3.007v6.092c-.887 1.85-2.93 2.969-5.128 2.969zM214.488 30.922h4.897l8.097-19.856h-5.244l-5.282 13.803-5.282-13.803h-5.244zM243.945 30.922h4.897V11.066h-4.897v2.313c-1.465-1.658-3.624-2.776-6.207-2.776-5.514 0-9.562 4.125-9.562 10.41s4.048 10.372 9.562 10.372c2.583 0 4.742-1.08 6.207-2.738zm-5.128-3.894c-3.2 0-5.668-2.198-5.668-6.015 0-3.855 2.468-6.053 5.668-6.053 2.198 0 4.241 1.118 5.128 3.007v6.092c-.887 1.85-2.93 2.969-5.128 2.969zM253.507 30.922h4.897V18.43c.5-1.812 2.12-3.47 4.55-3.47 2.891 0 4.395 1.658 4.395 4.82v11.142h4.896V19.24c0-5.09-2.39-8.637-7.557-8.637-3.084 0-5.205 1.465-6.284 3.239v-2.776h-4.897zM275.253 30.922h16.772V26.99h-10.45l10.218-12.415v-3.508h-15.846v3.932h9.6l-10.294 12.415zM309.8 30.922h4.896V11.066h-4.897v2.313c-1.465-1.658-3.624-2.776-6.207-2.776-5.514 0-9.562 4.125-9.562 10.41s4.048 10.372 9.562 10.372c2.583 0 4.742-1.08 6.207-2.738zm-5.129-3.894c-3.2 0-5.668-2.198-5.668-6.015 0-3.855 2.468-6.053 5.668-6.053 2.198 0 4.241 1.118 5.128 3.007v6.092c-.887 1.85-2.93 2.969-5.128 2.969zM328.113 31.153c.733 0 1.543-.077 2.198-.23v-3.934h-.925c-2.468 0-3.663-.886-3.663-3.431v-8.56h4.588v-3.932h-4.588V6.015h-4.743v5.05h-3.47v3.933h3.316v8.329c0 5.436 2.468 7.826 7.287 7.826zM348.008 30.922h4.897V11.066h-4.897v2.313c-1.465-1.658-3.624-2.776-6.207-2.776-5.514 0-9.562 4.125-9.562 10.41s4.048 10.372 9.562 10.372c2.583 0 4.742-1.08 6.207-2.738zm-5.128-3.894c-3.2 0-5.667-2.198-5.667-6.015 0-3.855 2.467-6.053 5.667-6.053 2.198 0 4.241 1.118 5.128 3.007v6.092c-.887 1.85-2.93 2.969-5.128 2.969z"/></g></svg>