<svg width="395.201" height="64.26" viewBox="0 0 395.201 64.26" xmlns="http://www.w3.org/2000/svg"><g fill="#fff"><path d="M8.964 25.768h3.342L20.98 3.92h-3.117l-7.229 18.41L3.374 3.92H.257zM23.455 25.768h2.892V9.671h-2.892zm-.129-19.76h3.117v-3.47h-3.117zM43.15 25.768h2.892V9.671h-2.891v2.281c-1.253-1.606-3.213-2.634-5.495-2.634-4.53 0-7.871 3.406-7.871 8.386 0 5.012 3.341 8.418 7.871 8.418 2.282 0 4.242-1.028 5.495-2.635zm-4.98-2.28c-3.02 0-5.43-2.186-5.43-5.784 0-3.567 2.41-5.752 5.43-5.752 2.25 0 4.145 1.19 4.98 2.988v5.591c-.835 1.767-2.73 2.956-4.98 2.956zM57.03 25.03c2.25 0 4.05-.965 5.27-2.507v1.318c0 3.79-2.41 5.558-5.205 5.558-2.41 0-4.177-.996-5.333-2.731l-1.896 1.767c1.35 2.185 3.791 3.599 7.326 3.599 4.209 0 8-2.828 8-8.386V9.67H62.3v2.185c-1.22-1.542-2.988-2.538-5.27-2.538-4.497 0-7.518 3.18-7.518 7.84 0 4.69 3.02 7.871 7.519 7.871zm.58-2.635c-3.053 0-5.142-2.12-5.142-5.238 0-3.084 2.089-5.205 5.141-5.205 2.12 0 3.856 1.125 4.691 2.86v4.723c-.835 1.735-2.57 2.86-4.69 2.86zM76.18 25.03c2.25 0 4.049-.965 5.27-2.507v1.318c0 3.79-2.41 5.558-5.205 5.558-2.41 0-4.177-.996-5.334-2.731l-1.896 1.767c1.35 2.185 3.792 3.599 7.326 3.599 4.21 0 8-2.828 8-8.386V9.67H81.45v2.185c-1.221-1.542-2.988-2.538-5.27-2.538-4.498 0-7.518 3.18-7.518 7.84 0 4.69 3.02 7.871 7.518 7.871zm.579-2.635c-3.053 0-5.141-2.12-5.141-5.238 0-3.084 2.088-5.205 5.14-5.205 2.121 0 3.856 1.125 4.692 2.86v4.723c-.836 1.735-2.57 2.86-4.691 2.86zM88.775 25.768h2.892V9.671h-2.892zm-.128-19.76h3.117v-3.47h-3.117zM108.471 25.768h2.892V9.671h-2.892v2.281c-1.253-1.606-3.213-2.634-5.494-2.634-4.53 0-7.872 3.406-7.872 8.386 0 5.012 3.342 8.418 7.872 8.418 2.281 0 4.241-1.028 5.494-2.635zm-4.98-2.28c-3.02 0-5.43-2.186-5.43-5.784 0-3.567 2.41-5.752 5.43-5.752 2.25 0 4.145 1.19 4.98 2.988v5.591c-.835 1.767-2.73 2.956-4.98 2.956zM123.347 25.768h2.892V9.671h-2.892zm-.128-19.76h3.117v-3.47h-3.117zM130.673 25.768h2.892V15.262c.482-1.767 2.12-3.31 4.53-3.31 2.731 0 4.273 1.639 4.273 4.724v9.092h2.892v-9.382c0-4.37-2.217-7.068-6.394-7.068-2.699 0-4.466 1.381-5.301 2.795V9.671h-2.892zM163.253 25.929c.45 0 .932-.064 1.285-.129v-2.377h-.514c-2.377 0-3.438-.836-3.438-3.213v-8.161h3.952V9.67h-3.952V5.494h-2.827v4.177h-2.86v2.378h2.796v8.064c0 4.017 1.895 5.816 5.558 5.816zM182.017 9.671h-2.892v10.507c-.482 1.767-2.12 3.31-4.53 3.31-2.731 0-4.273-1.64-4.273-4.724V9.671h-2.892v9.382c0 4.37 2.217 7.069 6.394 7.069 2.699 0 4.466-1.382 5.301-2.796v2.442h2.892zM193.134 25.929c.45 0 .932-.064 1.285-.129v-2.377h-.514c-2.377 0-3.438-.836-3.438-3.213v-8.161h3.952V9.67h-3.952V5.494h-2.827v4.177h-2.86v2.378h2.796v8.064c0 4.017 1.895 5.816 5.558 5.816zM204.155 25.929c.45 0 .931-.064 1.285-.129v-2.377h-.514c-2.378 0-3.438-.836-3.438-3.213v-8.161h3.952V9.67h-3.952V5.494h-2.828v4.177h-2.86v2.378h2.796v8.064c0 4.017 1.896 5.816 5.559 5.816zM220.67 25.768h2.891V9.671h-2.891v2.281c-1.254-1.606-3.213-2.634-5.495-2.634-4.53 0-7.872 3.406-7.872 8.386 0 5.012 3.342 8.418 7.872 8.418 2.282 0 4.241-1.028 5.495-2.635zm-4.98-2.28c-3.02 0-5.43-2.186-5.43-5.784 0-3.567 2.41-5.752 5.43-5.752 2.248 0 4.144 1.19 4.98 2.988v5.591c-.836 1.767-2.732 2.956-4.98 2.956z"/></g><g fill="#fff"><path d="M8.9 58.06c.45 0 .932-.065 1.285-.13v-2.377h-.514c-2.377 0-3.438-.835-3.438-3.213v-8.161h3.952V41.8H6.233v-4.177H3.406v4.177H.546v2.378h2.796v8.065c0 4.016 1.895 5.815 5.558 5.815zM13.238 57.898h2.891V47.874c.868-2.506 2.828-3.567 5.43-3.63v-2.796h-.353c-2.474 0-4.177 1.35-5.077 3.116v-2.763h-2.891zM36.018 57.898h2.892V41.801h-2.892v2.281c-1.253-1.606-3.213-2.634-5.494-2.634-4.53 0-7.872 3.406-7.872 8.386 0 5.012 3.341 8.418 7.872 8.418 2.28 0 4.24-1.028 5.494-2.635zm-4.98-2.28c-3.02 0-5.43-2.186-5.43-5.784 0-3.567 2.41-5.752 5.43-5.752 2.249 0 4.144 1.19 4.98 2.989v5.59c-.836 1.767-2.731 2.956-4.98 2.956zM43.344 57.898h2.891V47.392c.482-1.767 2.12-3.31 4.53-3.31 2.732 0 4.274 1.64 4.274 4.724v9.092h2.892v-9.382c0-4.37-2.217-7.068-6.394-7.068-2.7 0-4.466 1.381-5.302 2.795v-2.442h-2.891zM77.434 41.801h-2.892v2.281c-1.253-1.606-3.149-2.634-5.462-2.634-4.53 0-7.872 3.406-7.872 8.386 0 5.012 3.341 8.418 7.872 8.418 2.313 0 4.209-1.028 5.462-2.603v8.161h2.892zm-7.84 13.816c-3.02 0-5.43-2.153-5.43-5.783 0-3.599 2.41-5.752 5.43-5.752 2.249 0 4.112 1.19 4.948 2.956v5.623c-.836 1.767-2.7 2.956-4.948 2.956zM96.294 41.801h-2.892v10.507c-.482 1.767-2.12 3.31-4.53 3.31-2.731 0-4.273-1.64-4.273-4.724v-9.093h-2.892v9.382c0 4.37 2.217 7.069 6.394 7.069 2.699 0 4.466-1.382 5.301-2.795v2.441h2.892zM100.728 57.898h2.892V41.801h-2.892zm-.129-19.76h3.117v-3.47h-3.117zM108.054 57.898h2.891V35.086h-2.891zM115.38 57.898h2.89V35.086h-2.89zM122.705 57.898h2.892V41.801h-2.892zm-.129-19.76h3.117v-3.47h-3.117zM136.714 58.06c.45 0 .931-.065 1.285-.13v-2.377h-.514c-2.378 0-3.438-.835-3.438-3.213v-8.161h3.952V41.8h-3.952v-4.177h-2.828v4.177h-2.86v2.378h2.796v8.065c0 4.016 1.896 5.815 5.559 5.815zM153.228 57.898h2.892V41.801h-2.892v2.281c-1.253-1.606-3.213-2.634-5.494-2.634-4.53 0-7.872 3.406-7.872 8.386 0 5.012 3.342 8.418 7.872 8.418 2.281 0 4.241-1.028 5.494-2.635zm-4.98-2.28c-3.02 0-5.43-2.186-5.43-5.784 0-3.567 2.41-5.752 5.43-5.752 2.25 0 4.145 1.19 4.98 2.989v5.59c-.835 1.767-2.73 2.956-4.98 2.956zm1.575-16.355v-.096l-2.314-4.82h-2.988v.096l2.796 4.82zM160.297 57.898h3.824v-3.823h-3.824z"/></g></svg>