<svg width="246" height="280" viewBox="0 0 246 280" xmlns="http://www.w3.org/2000/svg"><g fill="#fff"><path d="M4.36 16.04v-5.78H10v5.78h2.7V2.44H10v5.62H4.36V2.44h-2.7v13.6zM16.32 19.5h2.86l5.48-13.72H21.8l-1.58 4.68c-.28.88-.44 1.48-.5 2.08h-.08c0-.34-.24-1.2-.54-2.08l-1.7-4.68h-2.84l3.74 8.96zM35.2 5.78h-2.64v6.86c-.36.84-1.06 1.5-2 1.5-1.1 0-1.88-.76-1.88-2.22V5.78h-2.64v6.48c0 2.4 1.1 4.06 3.68 4.06 1.32 0 2.3-.6 2.94-1.4v1.12h2.54zM37.92 16.04h2.64V9.18c.36-.84 1.04-1.5 2-1.5 1.1 0 1.88.76 1.88 2.22v6.14h2.64V9.56c0-2.4-1.1-4.06-3.68-4.06-1.32 0-2.3.6-2.94 1.4V5.78h-2.54zM56.56 16.04h2.54V1.84h-2.64v5c-.66-.82-1.62-1.36-2.76-1.36-2.62 0-4.58 2.02-4.58 5.42s1.96 5.42 4.58 5.42c1.2 0 2.2-.6 2.86-1.5zm-2.28-1.9c-1.4 0-2.48-1-2.48-3.24s1.08-3.24 2.48-3.24c.88 0 1.76.58 2.18 1.56v3.36c-.42.98-1.3 1.56-2.18 1.56zM64.84 16.32c1.06 0 2-.34 2.72-1v.72h2.48V9.68c0-2.44-1.6-4.18-4.62-4.18-1.78 0-3.12.78-3.74 1.58l1.36 1.66c.4-.5 1.18-1.06 2.32-1.06 1.44 0 2.04 1 2.04 2.22v.64c-.7-.56-1.56-.86-2.56-.86-2.34 0-3.74 1.36-3.74 3.32 0 1.96 1.4 3.32 3.74 3.32zm.62-1.88c-1.22 0-1.7-.7-1.7-1.44s.48-1.44 1.7-1.44c.88 0 1.56.4 1.94.94v1c-.38.54-1.06.94-1.94.94zM72.64 16.04h2.64V5.78h-2.64zM72.52 4.1h2.88V1.58h-2.88zM82.5 16.04h5.62c2.98 0 4.64-1.46 4.64-3.88 0-1.64-1.06-2.76-2.6-3.32 1.04-.62 1.64-1.58 1.64-2.78 0-2.08-1.66-3.62-4.22-3.62H82.5zm2.7-2.12v-3.76h2.66c1.46 0 2.1.76 2.1 1.88 0 1.12-.64 1.88-2.1 1.88zm0-5.88V4.56H87c1.46 0 2 .74 2 1.74s-.54 1.74-2 1.74zM93.38 16.04h2.86l.94-2.92h5.08l.96 2.92h2.86l-4.74-13.6h-3.22zm5.82-9.06c.3-.9.48-1.82.48-2.16h.08c0 .34.18 1.26.5 2.16l1.28 3.94H97.9zM112.38 16.04v-5.88l4.6-7.66v-.06h-3.04l-2.92 5.26-2.9-5.26h-3.04v.06l4.6 7.68v5.86zM123.44 2.16c-3.82 0-6.34 2.92-6.34 7.08s2.52 7.08 6.34 7.08 6.34-2.92 6.34-7.08-2.52-7.08-6.34-7.08zm0 2.32c2.38 0 3.54 1.98 3.54 4.76S125.82 14 123.44 14s-3.54-1.98-3.54-4.76 1.16-4.76 3.54-4.76zM132.3 16.04h2.7V8.76c0-.92-.08-1.92-.16-2.28h.08c.08.32.48 1.16 1.04 1.96l5.32 7.6h2.4V2.44h-2.7v7.28c0 .92.06 1.82.16 2.28h-.08c-.08-.32-.48-1.16-1.04-1.96l-5.3-7.6h-2.42z"/></g><g fill="#fff"><path d="M4.52 43.86v12.18h1.66V43.86h4.08v-1.42H.44v1.42zM18.9 46.12h-1.6v6.94c-.3.94-1.22 1.78-2.56 1.78-1.52 0-2.4-.92-2.4-2.7v-6.02h-1.6v6.18c0 2.48 1.3 3.96 3.6 3.96 1.38 0 2.48-.78 3.02-1.56v1.34h1.54zM25.08 56.26c1.06 0 2.08-.4 2.82-1.2v.98h1.54v-6.26c0-2.3-1.38-3.88-3.98-3.88-1.74 0-2.74.74-3.46 1.5l.92 1.04c.72-.7 1.32-1.12 2.5-1.12 1.64 0 2.42 1.14 2.42 2.58v1c-.72-.76-1.72-1.16-2.76-1.16-2.24 0-3.66 1.46-3.66 3.26 0 1.8 1.42 3.26 3.66 3.26zm.22-1.34c-1.62 0-2.26-1.02-2.26-1.92 0-.9.64-1.92 2.26-1.92.9 0 2.02.36 2.54 1.24v1.36c-.52.9-1.64 1.24-2.54 1.24zM44.16 56.04h1.54v-14.2h-1.6v5.62c-.74-.96-1.86-1.56-3.1-1.56-2.64 0-4.32 2.12-4.32 5.18 0 3.06 1.68 5.18 4.32 5.18 1.26 0 2.42-.62 3.16-1.62zm-2.82-1.2c-1.88 0-3-1.42-3-3.76s1.12-3.76 3-3.76a3 3 0 012.76 1.8v3.94c-.46 1.06-1.52 1.78-2.76 1.78zM51.88 56.26c1.06 0 2.08-.4 2.82-1.2v.98h1.54v-6.26c0-2.3-1.38-3.88-3.98-3.88-1.74 0-2.74.74-3.46 1.5l.92 1.04c.72-.7 1.32-1.12 2.5-1.12 1.64 0 2.42 1.14 2.42 2.58v1c-.72-.76-1.72-1.16-2.76-1.16-2.24 0-3.66 1.46-3.66 3.26 0 1.8 1.42 3.26 3.66 3.26zm.22-1.34c-1.62 0-2.26-1.02-2.26-1.92 0-.9.64-1.92 2.26-1.92.9 0 2.02.36 2.54 1.24v1.36c-.52.9-1.64 1.24-2.54 1.24zM64.22 49.48c0 .28 0 .56.02.82H63.1v1.22h1.28c.56 3.1 2.42 4.74 4.9 4.74 1.5 0 2.76-.66 3.74-1.94l-1.04-1.02c-.68 1-1.56 1.5-2.7 1.5-1.6 0-2.8-1.06-3.22-3.28h4.64V50.3h-4.8c-.02-.26-.02-.52-.02-.82 0-.28 0-.54.02-.8h4.8v-1.22h-4.64c.42-2.22 1.62-3.3 3.22-3.3 1.14 0 2.02.52 2.7 1.5l1.04-1c-.98-1.28-2.24-1.96-3.74-1.96-2.48 0-4.34 1.66-4.9 4.76H63.1v1.22h1.14c-.02.26-.02.52-.02.8zM84.2 56.26c3.08 0 4.76-1.66 4.76-3.94 0-1.64-1.04-3.04-2.5-3.44 1.2-.56 1.76-1.54 1.76-2.78 0-1.86-1.42-3.4-4.02-3.4-2.6 0-4.02 1.54-4.02 3.4 0 1.24.56 2.22 1.76 2.78-1.48.4-2.5 1.8-2.5 3.44 0 2.28 1.68 3.94 4.76 3.94zm0-1.46c-2.02 0-3.1-1.08-3.1-2.58s1.08-2.6 3.1-2.6 3.1 1.1 3.1 2.6-1.08 2.58-3.1 2.58zm0-6.6c-1.32 0-2.36-.7-2.36-2s1.04-2.04 2.36-2.04c1.32 0 2.36.74 2.36 2.04s-1.04 2-2.36 2zM98.84 42.92h-6.58l-.62 6.44.98.32c.68-.64 1.46-1.02 2.56-1.02 1.6 0 2.74 1.08 2.74 2.98 0 2-1.32 3.16-3.04 3.16-1.52 0-2.42-.84-3.08-1.64l-.96 1.04c.72.9 2 2.06 4.04 2.06 2.72 0 4.7-1.82 4.7-4.62 0-2.9-1.9-4.44-4.3-4.44-.78 0-1.42.22-1.98.5l.34-3.36h5.2zM109.82 56.26c1.06 0 2.08-.4 2.82-1.2v.98h1.54v-6.26c0-2.3-1.38-3.88-3.98-3.88-1.74 0-2.74.74-3.46 1.5l.92 1.04c.72-.7 1.32-1.12 2.5-1.12 1.64 0 2.42 1.14 2.42 2.58v1c-.72-.76-1.72-1.16-2.76-1.16-2.24 0-3.66 1.46-3.66 3.26 0 1.8 1.42 3.26 3.66 3.26zm.22-1.34c-1.62 0-2.26-1.02-2.26-1.92 0-.9.64-1.92 2.26-1.92.9 0 2.02.36 2.54 1.24v1.36c-.52.9-1.64 1.24-2.54 1.24zM117.34 41.84v14.2h1.6v-14.2zM126.92 56.04h1.6V49.1c.28-.94 1.22-1.78 2.56-1.78 1.44 0 2.26.9 2.26 2.66v6.06h1.6V49.1c.28-.94 1.22-1.78 2.56-1.78 1.44 0 2.26.9 2.26 2.66v6.06h1.6v-6.22c0-2.46-1.28-3.92-3.56-3.92-1.56 0-2.8.92-3.28 1.76-.54-1.14-1.58-1.76-3.04-1.76-1.38 0-2.5.8-3.02 1.58v-1.36h-1.54zM148.46 56.26c1.96 0 3.24-.86 3.98-1.98l-1.08-.9c-.58.94-1.58 1.46-2.8 1.46-1.76 0-2.84-1.2-2.98-3.26h7.08c.04-.24.06-.52.06-.78 0-2.82-1.66-4.9-4.32-4.9-2.72 0-4.5 2.02-4.5 5.18 0 3.18 1.74 5.18 4.56 5.18zm-.06-8.94c1.5 0 2.54 1.12 2.64 2.9h-5.44c.24-1.86 1.28-2.9 2.8-2.9zM161.36 47.52c-.66-.98-1.76-1.62-3.14-1.62-2.04 0-3.18 1.36-3.18 2.88 0 1.44.88 2.36 2.44 2.7l.84.18c1.1.24 1.84.68 1.84 1.6 0 1-.82 1.64-2.08 1.64-1.24 0-2.16-.78-2.74-1.66l-1.04.96c.72 1.08 2 2.06 3.74 2.06 2.36 0 3.74-1.5 3.74-3.1 0-1.74-1.12-2.6-3-3l-.84-.18c-.82-.18-1.28-.62-1.28-1.36 0-.72.52-1.36 1.5-1.36.84 0 1.58.34 2.16 1.16zM168.26 56.26c1.96 0 3.24-.86 3.98-1.98l-1.08-.9c-.58.94-1.58 1.46-2.8 1.46-1.76 0-2.84-1.2-2.98-3.26h7.08c.04-.24.06-.52.06-.78 0-2.82-1.66-4.9-4.32-4.9-2.72 0-4.5 2.02-4.5 5.18 0 3.18 1.74 5.18 4.56 5.18zm-.06-8.94c1.5 0 2.54 1.12 2.64 2.9h-5.44c.24-1.86 1.28-2.9 2.8-2.9zM179.78 46.12v9.92h1.6v-9.92zm-.2-4.28v2h2v-2zM184.66 56.04h1.6V49.1c.28-.94 1.22-1.78 2.56-1.78 1.52 0 2.4.92 2.4 2.7v6.02h1.6v-6.18c0-2.48-1.3-3.96-3.6-3.96-1.38 0-2.5.8-3.02 1.58v-1.36h-1.54zM203.96 56.26c2.8 0 4.68-1.58 4.68-3.96 0-1.6-.92-2.9-2.5-3.32 1.14-.52 1.88-1.58 1.88-2.76 0-2.24-1.56-3.52-3.98-3.52-1.76 0-2.98.9-3.68 2l.98.94c.52-.92 1.42-1.48 2.7-1.48 1.3 0 2.32.68 2.32 2.12 0 1.1-.76 2.12-2.34 2.12h-1.12v1.38h1.12c2.02 0 2.96 1 2.96 2.44 0 1.62-1.16 2.58-3.02 2.58-1.7 0-2.56-.9-3.24-1.78l-.98 1.04c.76.96 2.02 2.2 4.22 2.2zM218.54 42.92h-6.58l-.62 6.44.98.32c.68-.64 1.46-1.02 2.56-1.02 1.6 0 2.74 1.08 2.74 2.98 0 2-1.32 3.16-3.04 3.16-1.52 0-2.42-.84-3.08-1.64l-.96 1.04c.72.9 2 2.06 4.04 2.06 2.72 0 4.7-1.82 4.7-4.62 0-2.9-1.9-4.44-4.3-4.44-.78 0-1.42.22-1.98.5l.34-3.36h5.2z"/></g><g fill="#fff"><path d="M1.64 76.04h1.6v-6.26c.48-1.5 1.44-2.22 2.76-2.22h.54v-1.62c-.14-.04-.28-.04-.42-.04-1.42 0-2.4.9-2.94 2v-1.78H1.64zM11.28 76.26c1.06 0 2.08-.4 2.82-1.2v.98h1.54v-6.26c0-2.3-1.38-3.88-3.98-3.88-1.74 0-2.74.74-3.46 1.5l.92 1.04c.72-.7 1.32-1.12 2.5-1.12 1.64 0 2.42 1.14 2.42 2.58v1c-.72-.76-1.72-1.16-2.76-1.16-2.24 0-3.66 1.46-3.66 3.26 0 1.8 1.42 3.26 3.66 3.26zm.22-1.34c-1.62 0-2.26-1.02-2.26-1.92 0-.9.64-1.92 2.26-1.92.9 0 2.02.36 2.54 1.24v1.36c-.52.9-1.64 1.24-2.54 1.24zM22.46 76.12c.26 0 .52-.02.72-.06V74.7h-.28c-1.34 0-1.94-.46-1.94-1.82v-5.4h2.22v-1.36h-2.22v-2.58h-1.58v2.58h-1.8v1.36h1.78v5.4c0 2.24 1.06 3.24 3.1 3.24zM29.42 76.26c1.96 0 3.24-.86 3.98-1.98l-1.08-.9c-.58.94-1.58 1.46-2.8 1.46-1.76 0-2.84-1.2-2.98-3.26h7.08c.04-.24.06-.52.06-.78 0-2.82-1.66-4.9-4.32-4.9-2.72 0-4.5 2.02-4.5 5.18 0 3.18 1.74 5.18 4.56 5.18zm-.06-8.94c1.5 0 2.54 1.12 2.64 2.9h-5.44c.24-1.86 1.28-2.9 2.8-2.9zM47.02 67.52c-.66-.98-1.76-1.62-3.14-1.62-2.04 0-3.18 1.36-3.18 2.88 0 1.44.88 2.36 2.44 2.7l.84.18c1.1.24 1.84.68 1.84 1.6 0 1-.82 1.64-2.08 1.64-1.24 0-2.16-.78-2.74-1.66l-1.04.96c.72 1.08 2 2.06 3.74 2.06 2.36 0 3.74-1.5 3.74-3.1 0-1.74-1.12-2.6-3-3l-.84-.18c-.82-.18-1.28-.62-1.28-1.36 0-.72.52-1.36 1.5-1.36.84 0 1.58.34 2.16 1.16zM54.02 74.84c-1.84 0-3.02-1.4-3.02-3.76s1.18-3.76 3.02-3.76 3.02 1.4 3.02 3.76-1.18 3.76-3.02 3.76zm0-8.94c-2.84 0-4.68 2.12-4.68 5.18 0 3.06 1.84 5.18 4.68 5.18s4.68-2.12 4.68-5.18c0-3.06-1.84-5.18-4.68-5.18zM61.34 61.84v14.2h1.6v-14.2zM70.26 74.84c-1.84 0-3.02-1.4-3.02-3.76s1.18-3.76 3.02-3.76 3.02 1.4 3.02 3.76-1.18 3.76-3.02 3.76zm0-8.94c-2.84 0-4.68 2.12-4.68 5.18 0 3.06 1.84 5.18 4.68 5.18s4.68-2.12 4.68-5.18c0-3.06-1.84-5.18-4.68-5.18zM81.66 71.08c0 3.06 1.72 5.18 4.58 5.18 1.88 0 3.4-1.02 3.96-2.62L88.94 73c-.46 1.2-1.42 1.84-2.7 1.84-1.78 0-2.92-1.4-2.92-3.76s1.14-3.76 2.92-3.76c1.28 0 2.24.64 2.7 1.84l1.26-.64c-.56-1.6-2.08-2.62-3.96-2.62-2.86 0-4.58 2.12-4.58 5.18zM96.7 74.84c-1.84 0-3.02-1.4-3.02-3.76s1.18-3.76 3.02-3.76 3.02 1.4 3.02 3.76-1.18 3.76-3.02 3.76zm0-8.94c-2.84 0-4.68 2.12-4.68 5.18 0 3.06 1.84 5.18 4.68 5.18s4.68-2.12 4.68-5.18c0-3.06-1.84-5.18-4.68-5.18zM104.02 76.04h1.6V69.1c.28-.94 1.22-1.78 2.56-1.78 1.52 0 2.4.92 2.4 2.7v6.02h1.6v-6.18c0-2.48-1.3-3.96-3.6-3.96-1.38 0-2.5.8-3.02 1.58v-1.36h-1.54zM120.04 79.8h1.6v-5.08c.72.94 1.86 1.54 3.1 1.54 2.64 0 4.32-2.12 4.32-5.18 0-3.06-1.68-5.18-4.32-5.18-1.28 0-2.44.64-3.16 1.64v-1.42h-1.54zm4.36-4.96c-1.24 0-2.3-.72-2.76-1.78v-3.94a3 3 0 012.76-1.8c1.88 0 3 1.42 3 3.76s-1.12 3.76-3 3.76zM135.66 76.26c1.96 0 3.24-.86 3.98-1.98l-1.08-.9c-.58.94-1.58 1.46-2.8 1.46-1.76 0-2.84-1.2-2.98-3.26h7.08c.04-.24.06-.52.06-.78 0-2.82-1.66-4.9-4.32-4.9-2.72 0-4.5 2.02-4.5 5.18 0 3.18 1.74 5.18 4.56 5.18zm-.06-8.94c1.5 0 2.54 1.12 2.64 2.9h-5.44c.24-1.86 1.28-2.9 2.8-2.9zM142.48 76.04h1.6v-6.26c.48-1.5 1.44-2.22 2.76-2.22h.54v-1.62c-.14-.04-.28-.04-.42-.04-1.42 0-2.4.9-2.94 2v-1.78h-1.54zM149.5 76.04h1.6V69.1c.28-.94 1.22-1.78 2.56-1.78 1.44 0 2.26.9 2.26 2.66v6.06h1.6V69.1c.28-.94 1.22-1.78 2.56-1.78 1.44 0 2.26.9 2.26 2.66v6.06h1.6v-6.22c0-2.46-1.28-3.92-3.56-3.92-1.56 0-2.8.92-3.28 1.76-.54-1.14-1.58-1.76-3.04-1.76-1.38 0-2.5.8-3.02 1.58v-1.36h-1.54zM175.14 66.12h-1.6v6.94c-.3.94-1.22 1.78-2.56 1.78-1.52 0-2.4-.92-2.4-2.7v-6.02h-1.6v6.18c0 2.48 1.3 3.96 3.6 3.96 1.38 0 2.48-.78 3.02-1.56v1.34h1.54zM182.22 76.12c.26 0 .52-.02.72-.06V74.7h-.28c-1.34 0-1.94-.46-1.94-1.82v-5.4h2.22v-1.36h-2.22v-2.58h-1.58v2.58h-1.8v1.36h1.78v5.4c0 2.24 1.06 3.24 3.1 3.24zM188.26 76.26c1.06 0 2.08-.4 2.82-1.2v.98h1.54v-6.26c0-2.3-1.38-3.88-3.98-3.88-1.74 0-2.74.74-3.46 1.5l.92 1.04c.72-.7 1.32-1.12 2.5-1.12 1.64 0 2.42 1.14 2.42 2.58v1c-.72-.76-1.72-1.16-2.76-1.16-2.24 0-3.66 1.46-3.66 3.26 0 1.8 1.42 3.26 3.66 3.26zm.22-1.34c-1.62 0-2.26-1.02-2.26-1.92 0-.9.64-1.92 2.26-1.92.9 0 2.02.36 2.54 1.24v1.36c-.52.9-1.64 1.24-2.54 1.24z"/></g><g fill="#fff"><path d="M5.68 94.84c-1.84 0-3.02-1.4-3.02-3.76s1.18-3.76 3.02-3.76 3.02 1.4 3.02 3.76-1.18 3.76-3.02 3.76zm0-8.94C2.84 85.9 1 88.02 1 91.08c0 3.06 1.84 5.18 4.68 5.18s4.68-2.12 4.68-5.18c0-3.06-1.84-5.18-4.68-5.18zM17.7 96.04h1.6v-6.26c.48-1.5 1.44-2.22 2.76-2.22h.54v-1.62c-.14-.04-.28-.04-.42-.04-1.42 0-2.4.9-2.94 2v-1.78H17.7zM28.46 94.84c-1.84 0-3.02-1.4-3.02-3.76s1.18-3.76 3.02-3.76 3.02 1.4 3.02 3.76-1.18 3.76-3.02 3.76zm0-8.94c-2.84 0-4.68 2.12-4.68 5.18 0 3.06 1.84 5.18 4.68 5.18s4.68-2.12 4.68-5.18c0-3.06-1.84-5.18-4.68-5.18zM39.42 96.12c.26 0 .52-.02.72-.06V94.7h-.28c-1.34 0-1.94-.46-1.94-1.82v-5.4h2.22v-1.36h-2.22v-2.58h-1.58v2.58h-1.8v1.36h1.78v5.4c0 2.24 1.06 3.24 3.1 3.24zM46.36 96.12c.26 0 .52-.02.72-.06V94.7h-.28c-1.34 0-1.94-.46-1.94-1.82v-5.4h2.22v-1.36h-2.22v-2.58h-1.58v2.58h-1.8v1.36h1.78v5.4c0 2.24 1.06 3.24 3.1 3.24zM52.4 96.26c1.06 0 2.08-.4 2.82-1.2v.98h1.54v-6.26c0-2.3-1.38-3.88-3.98-3.88-1.74 0-2.74.74-3.46 1.5l.92 1.04c.72-.7 1.32-1.12 2.5-1.12 1.64 0 2.42 1.14 2.42 2.58v1c-.72-.76-1.72-1.16-2.76-1.16-2.24 0-3.66 1.46-3.66 3.26 0 1.8 1.42 3.26 3.66 3.26zm.22-1.34c-1.62 0-2.26-1.02-2.26-1.92 0-.9.64-1.92 2.26-1.92.9 0 2.02.36 2.54 1.24v1.36c-.52.9-1.64 1.24-2.54 1.24zM59.92 96.04h1.6V89.1c.28-.94 1.22-1.78 2.56-1.78 1.44 0 2.26.9 2.26 2.66v6.06h1.6V89.1c.28-.94 1.22-1.78 2.56-1.78 1.44 0 2.26.9 2.26 2.66v6.06h1.6v-6.22c0-2.46-1.28-3.92-3.56-3.92-1.56 0-2.8.92-3.28 1.76-.54-1.14-1.58-1.76-3.04-1.76-1.38 0-2.5.8-3.02 1.58v-1.36h-1.54zM80.42 96.26c1.06 0 2.08-.4 2.82-1.2v.98h1.54v-6.26c0-2.3-1.38-3.88-3.98-3.88-1.74 0-2.74.74-3.46 1.5l.92 1.04c.72-.7 1.32-1.12 2.5-1.12 1.64 0 2.42 1.14 2.42 2.58v1c-.72-.76-1.72-1.16-2.76-1.16-2.24 0-3.66 1.46-3.66 3.26 0 1.8 1.42 3.26 3.66 3.26zm.22-1.34c-1.62 0-2.26-1.02-2.26-1.92 0-.9.64-1.92 2.26-1.92.9 0 2.02.36 2.54 1.24v1.36c-.52.9-1.64 1.24-2.54 1.24zM94.34 86.12h-6.92v1.36h4.78l-5.14 7.44v1.12h7.4v-1.36h-5.28l5.16-7.44zM96.96 86.12v9.92h1.6v-9.92zm-.2-4.28v2h2v-2zM105.88 94.84c-1.84 0-3.02-1.4-3.02-3.76s1.18-3.76 3.02-3.76 3.02 1.4 3.02 3.76-1.18 3.76-3.02 3.76zm0-8.94c-2.84 0-4.68 2.12-4.68 5.18 0 3.06 1.84 5.18 4.68 5.18s4.68-2.12 4.68-5.18c0-3.06-1.84-5.18-4.68-5.18zM113.2 96.04h1.6V89.1c.28-.94 1.22-1.78 2.56-1.78 1.52 0 2.4.92 2.4 2.7v6.02h1.6v-6.18c0-2.48-1.3-3.96-3.6-3.96-1.38 0-2.5.8-3.02 1.58v-1.36h-1.54zM128.46 96.26c1.96 0 3.24-.86 3.98-1.98l-1.08-.9c-.58.94-1.58 1.46-2.8 1.46-1.76 0-2.84-1.2-2.98-3.26h7.08c.04-.24.06-.52.06-.78 0-2.82-1.66-4.9-4.32-4.9-2.72 0-4.5 2.02-4.5 5.18 0 3.18 1.74 5.18 4.56 5.18zm-.06-8.94c1.5 0 2.54 1.12 2.64 2.9h-5.44c.24-1.86 1.28-2.9 2.8-2.9z"/></g><g fill="#fff"><path d="M5.58 116.26c1.96 0 3.24-.86 3.98-1.98l-1.08-.9c-.58.94-1.58 1.46-2.8 1.46-1.76 0-2.84-1.2-2.98-3.26h7.08c.04-.24.06-.52.06-.78 0-2.82-1.66-4.9-4.32-4.9-2.72 0-4.5 2.02-4.5 5.18 0 3.18 1.74 5.18 4.56 5.18zm-.06-8.94c1.5 0 2.54 1.12 2.64 2.9H2.72c.24-1.86 1.28-2.9 2.8-2.9zM17.78 116.04h1.6v-8.56h2.18v-1.36h-2.18v-1.44c0-1.1.54-1.6 1.7-1.6h.48v-1.32c-.24-.02-.58-.04-.84-.04-1.96 0-2.94 1.22-2.94 2.94v1.46h-1.7v1.36h1.7zM23.76 106.12v9.92h1.6v-9.92zm-.2-4.28v2h2v-2zM28.64 116.04h1.6v-6.94c.28-.94 1.22-1.78 2.56-1.78 1.52 0 2.4.92 2.4 2.7v6.02h1.6v-6.18c0-2.48-1.3-3.96-3.6-3.96-1.38 0-2.5.8-3.02 1.58v-1.36h-1.54zM42.86 116.26c1.06 0 2.08-.4 2.82-1.2v.98h1.54v-6.26c0-2.3-1.38-3.88-3.98-3.88-1.74 0-2.74.74-3.46 1.5l.92 1.04c.72-.7 1.32-1.12 2.5-1.12 1.64 0 2.42 1.14 2.42 2.58v1c-.72-.76-1.72-1.16-2.76-1.16-2.24 0-3.66 1.46-3.66 3.26 0 1.8 1.42 3.26 3.66 3.26zm.22-1.34c-1.62 0-2.26-1.02-2.26-1.92 0-.9.64-1.92 2.26-1.92.9 0 2.02.36 2.54 1.24v1.36c-.52.9-1.64 1.24-2.54 1.24zM50.38 116.04h1.6v-6.94c.28-.94 1.22-1.78 2.56-1.78 1.52 0 2.4.92 2.4 2.7v6.02h1.6v-6.18c0-2.48-1.3-3.96-3.6-3.96-1.38 0-2.5.8-3.02 1.58v-1.36h-1.54zM68.1 106.12h-6.92v1.36h4.78l-5.14 7.44v1.12h7.4v-1.36h-5.28l5.16-7.44zM70.72 106.12v9.92h1.6v-9.92zm-.2-4.28v2h2v-2zM78.5 116.26c1.06 0 2.08-.4 2.82-1.2v.98h1.54v-6.26c0-2.3-1.38-3.88-3.98-3.88-1.74 0-2.74.74-3.46 1.5l.92 1.04c.72-.7 1.32-1.12 2.5-1.12 1.64 0 2.42 1.14 2.42 2.58v1c-.72-.76-1.72-1.16-2.76-1.16-2.24 0-3.66 1.46-3.66 3.26 0 1.8 1.42 3.26 3.66 3.26zm.22-1.34c-1.62 0-2.26-1.02-2.26-1.92 0-.9.64-1.92 2.26-1.92.9 0 2.02.36 2.54 1.24v1.36c-.52.9-1.64 1.24-2.54 1.24zM86.02 116.04h1.6v-6.94c.28-.94 1.22-1.78 2.56-1.78 1.44 0 2.26.9 2.26 2.66v6.06h1.6v-6.94c.28-.94 1.22-1.78 2.56-1.78 1.44 0 2.26.9 2.26 2.66v6.06h1.6v-6.22c0-2.46-1.28-3.92-3.56-3.92-1.56 0-2.8.92-3.28 1.76-.54-1.14-1.58-1.76-3.04-1.76-1.38 0-2.5.8-3.02 1.58v-1.36h-1.54zM107.56 116.26c1.96 0 3.24-.86 3.98-1.98l-1.08-.9c-.58.94-1.58 1.46-2.8 1.46-1.76 0-2.84-1.2-2.98-3.26h7.08c.04-.24.06-.52.06-.78 0-2.82-1.66-4.9-4.32-4.9-2.72 0-4.5 2.02-4.5 5.18 0 3.18 1.74 5.18 4.56 5.18zm-.06-8.94c1.5 0 2.54 1.12 2.64 2.9h-5.44c.24-1.86 1.28-2.9 2.8-2.9zM114.38 116.04h1.6v-6.94c.28-.94 1.22-1.78 2.56-1.78 1.52 0 2.4.92 2.4 2.7v6.02h1.6v-6.18c0-2.48-1.3-3.96-3.6-3.96-1.38 0-2.5.8-3.02 1.58v-1.36h-1.54zM129.4 116.12c.26 0 .52-.02.72-.06v-1.36h-.28c-1.34 0-1.94-.46-1.94-1.82v-5.4h2.22v-1.36h-2.22v-2.58h-1.58v2.58h-1.8v1.36h1.78v5.4c0 2.24 1.06 3.24 3.1 3.24zM136.46 114.84c-1.84 0-3.02-1.4-3.02-3.76s1.18-3.76 3.02-3.76 3.02 1.4 3.02 3.76-1.18 3.76-3.02 3.76zm0-8.94c-2.84 0-4.68 2.12-4.68 5.18 0 3.06 1.84 5.18 4.68 5.18s4.68-2.12 4.68-5.18c0-3.06-1.84-5.18-4.68-5.18z"/></g><g fill="#fff"><path d="M10.7 136.04h1.66v-13.6H10.7v6.02H3.66v-6.02H2v13.6h1.66v-6.16h7.04zM16.7 139.8h1.74l5.48-13.68h-1.74l-2.12 5.68c-.28.74-.44 1.26-.54 1.78h-.06c0-.3-.26-1.04-.56-1.78l-2.28-5.68H14.9l3.84 8.92zM34.08 126.12h-1.6v6.94c-.3.94-1.22 1.78-2.56 1.78-1.52 0-2.4-.92-2.4-2.7v-6.02h-1.6v6.18c0 2.48 1.3 3.96 3.6 3.96 1.38 0 2.48-.78 3.02-1.56v1.34h1.54zM37.36 136.04h1.6v-6.94c.28-.94 1.22-1.78 2.56-1.78 1.52 0 2.4.92 2.4 2.7v6.02h1.6v-6.18c0-2.48-1.3-3.96-3.6-3.96-1.38 0-2.5.8-3.02 1.58v-1.36h-1.54zM55.54 136.04h1.54v-14.2h-1.6v5.62c-.74-.96-1.86-1.56-3.1-1.56-2.64 0-4.32 2.12-4.32 5.18 0 3.06 1.68 5.18 4.32 5.18 1.26 0 2.42-.62 3.16-1.62zm-2.82-1.2c-1.88 0-3-1.42-3-3.76s1.12-3.76 3-3.76a3 3 0 012.76 1.8v3.94c-.46 1.06-1.52 1.78-2.76 1.78zM63.26 136.26c1.06 0 2.08-.4 2.82-1.2v.98h1.54v-6.26c0-2.3-1.38-3.88-3.98-3.88-1.74 0-2.74.74-3.46 1.5l.92 1.04c.72-.7 1.32-1.12 2.5-1.12 1.64 0 2.42 1.14 2.42 2.58v1c-.72-.76-1.72-1.16-2.76-1.16-2.24 0-3.66 1.46-3.66 3.26 0 1.8 1.42 3.26 3.66 3.26zm.22-1.34c-1.62 0-2.26-1.02-2.26-1.92 0-.9.64-1.92 2.26-1.92.9 0 2.02.36 2.54 1.24v1.36c-.52.9-1.64 1.24-2.54 1.24zM70.78 126.12v9.92h1.6v-9.92zm-.2-4.28v2h2v-2zM89.58 126.46c0-2.56-1.64-4.02-4.34-4.02h-4.52v13.6h1.66v-5.56h2.86c2.7 0 4.34-1.46 4.34-4.02zm-1.72 0c0 1.68-.94 2.6-2.82 2.6h-2.66v-5.2h2.66c1.88 0 2.82.92 2.82 2.6zM91.96 121.84v14.2h1.6v-14.2zM104.88 126.12h-1.6v6.94c-.3.94-1.22 1.78-2.56 1.78-1.52 0-2.4-.92-2.4-2.7v-6.02h-1.6v6.18c0 2.48 1.3 3.96 3.6 3.96 1.38 0 2.48-.78 3.02-1.56v1.34h1.54zM114.24 127.52c-.66-.98-1.76-1.62-3.14-1.62-2.04 0-3.18 1.36-3.18 2.88 0 1.44.88 2.36 2.44 2.7l.84.18c1.1.24 1.84.68 1.84 1.6 0 1-.82 1.64-2.08 1.64-1.24 0-2.16-.78-2.74-1.66l-1.04.96c.72 1.08 2 2.06 3.74 2.06 2.36 0 3.74-1.5 3.74-3.1 0-1.74-1.12-2.6-3-3l-.84-.18c-.82-.18-1.28-.62-1.28-1.36 0-.72.52-1.36 1.5-1.36.84 0 1.58.34 2.16 1.16zM116.98 136.04h2.38v-2.38h-2.38z"/></g><g fill="#fff"><path d="M.24 176.04h1.78l1.2-3.42h5.86l1.22 3.42h1.78l-4.98-13.6H5.24zm5.36-10.16c.3-.8.54-1.58.54-1.88h.06c0 .3.24 1.08.52 1.88l1.86 5.32H3.72zM13.96 176.04h1.6v-6.94c.28-.94 1.22-1.78 2.56-1.78 1.52 0 2.4.92 2.4 2.7v6.02h1.6v-6.18c0-2.48-1.3-3.96-3.6-3.96-1.38 0-2.5.8-3.02 1.58v-1.36h-1.54zM28.98 176.12c.26 0 .52-.02.72-.06v-1.36h-.28c-1.34 0-1.94-.46-1.94-1.82v-5.4h2.22v-1.36h-2.22v-2.58H25.9v2.58h-1.8v1.36h1.78v5.4c0 2.24 1.06 3.24 3.1 3.24zM32.12 166.12v9.92h1.6v-9.92zm-.2-4.28v2h2v-2zM36.38 171.08c0 3.06 1.72 5.18 4.58 5.18 1.88 0 3.4-1.02 3.96-2.62l-1.26-.64c-.46 1.2-1.42 1.84-2.7 1.84-1.78 0-2.92-1.4-2.92-3.76s1.14-3.76 2.92-3.76c1.28 0 2.24.64 2.7 1.84l1.26-.64c-.56-1.6-2.08-2.62-3.96-2.62-2.86 0-4.58 2.12-4.58 5.18zM47.38 166.12v9.92h1.6v-9.92zm-.2-4.28v2h2v-2zM52.26 179.8h1.6v-5.08c.72.94 1.86 1.54 3.1 1.54 2.64 0 4.32-2.12 4.32-5.18 0-3.06-1.68-5.18-4.32-5.18-1.28 0-2.44.64-3.16 1.64v-1.42h-1.54zm4.36-4.96c-1.24 0-2.3-.72-2.76-1.78v-3.94a3 3 0 012.76-1.8c1.88 0 3 1.42 3 3.76s-1.12 3.76-3 3.76zM67.98 174.84c-1.84 0-3.02-1.4-3.02-3.76s1.18-3.76 3.02-3.76 3.02 1.4 3.02 3.76-1.18 3.76-3.02 3.76zm0-8.94c-2.84 0-4.68 2.12-4.68 5.18 0 3.06 1.84 5.18 4.68 5.18s4.68-2.12 4.68-5.18c0-3.06-1.84-5.18-4.68-5.18zM80.12 169.48c0 .28 0 .56.02.82H79v1.22h1.28c.56 3.1 2.42 4.74 4.9 4.74 1.5 0 2.76-.66 3.74-1.94l-1.04-1.02c-.68 1-1.56 1.5-2.7 1.5-1.6 0-2.8-1.06-3.22-3.28h4.64v-1.22h-4.8c-.02-.26-.02-.52-.02-.82 0-.28 0-.54.02-.8h4.8v-1.22h-4.64c.42-2.22 1.62-3.3 3.22-3.3 1.14 0 2.02.52 2.7 1.5l1.04-1c-.98-1.28-2.24-1.96-3.74-1.96-2.48 0-4.34 1.66-4.9 4.76H79v1.22h1.14c-.02.26-.02.52-.02.8zM104.56 164.78c-.72-1.12-2.02-2.08-3.8-2.08-3.24 0-5.32 2.66-5.32 7.1 0 3.9 1.64 6.46 4.8 6.46 2.52 0 4.54-1.92 4.54-4.56 0-2.64-1.94-4.54-4.3-4.54-1.64 0-2.78.8-3.48 1.9.16-3.18 1.64-4.9 3.76-4.9 1.16 0 2.1.6 2.68 1.5zm-7.16 6.94c0-1.84 1.12-3.1 2.84-3.1 1.74 0 2.88 1.26 2.88 3.1 0 1.8-1.14 3.08-2.88 3.08-1.72 0-2.84-1.28-2.84-3.08zM107.28 176.04h2.38v-2.38h-2.38zM113.44 166.32c.4-1.42 1.26-2.16 2.54-2.16 1.7 0 2.46 1 2.46 2.54 0 3.26-4.88 4.76-6.4 8.16v1.18h8.22v-1.42h-6.24c1.16-2.18 6.08-3.98 6.08-7.98 0-2.34-1.54-3.94-4.08-3.94-2.34 0-3.5 1.62-3.9 2.98zM127.44 176.26c3.18 0 4.9-2.76 4.9-6.78 0-4.02-1.72-6.78-4.9-6.78-3.18 0-4.9 2.76-4.9 6.78 0 4.02 1.72 6.78 4.9 6.78zm0-1.46c-2.26 0-3.24-2.2-3.24-5.32s.98-5.32 3.24-5.32c2.26 0 3.24 2.2 3.24 5.32s-.98 5.32-3.24 5.32zM139.6 176.26c3.18 0 4.9-2.76 4.9-6.78 0-4.02-1.72-6.78-4.9-6.78-3.18 0-4.9 2.76-4.9 6.78 0 4.02 1.72 6.78 4.9 6.78zm0-1.46c-2.26 0-3.24-2.2-3.24-5.32s.98-5.32 3.24-5.32c2.26 0 3.24 2.2 3.24 5.32s-.98 5.32-3.24 5.32z"/></g><g fill="#fff"><path d="M5.2 196.04h1.88l4.88-13.6h-1.74L6.7 192.58c-.28.8-.52 1.6-.52 1.9h-.06c0-.3-.26-1.1-.54-1.9l-3.52-10.14H.32zM16 196.26c1.06 0 2.08-.4 2.82-1.2v.98h1.54v-6.26c0-2.3-1.38-3.88-3.98-3.88-1.74 0-2.74.74-3.46 1.5l.92 1.04c.72-.7 1.32-1.12 2.5-1.12 1.64 0 2.42 1.14 2.42 2.58v1c-.72-.76-1.72-1.16-2.76-1.16-2.24 0-3.66 1.46-3.66 3.26 0 1.8 1.42 3.26 3.66 3.26zm.22-1.34c-1.62 0-2.26-1.02-2.26-1.92 0-.9.64-1.92 2.26-1.92.9 0 2.02.36 2.54 1.24v1.36c-.52.9-1.64 1.24-2.54 1.24zM23.52 181.84v14.2h1.6v-14.2zM32.44 194.84c-1.84 0-3.02-1.4-3.02-3.76s1.18-3.76 3.02-3.76 3.02 1.4 3.02 3.76-1.18 3.76-3.02 3.76zm0-8.94c-2.84 0-4.68 2.12-4.68 5.18 0 3.06 1.84 5.18 4.68 5.18s4.68-2.12 4.68-5.18c0-3.06-1.84-5.18-4.68-5.18zM39.76 196.04h1.6v-6.26c.48-1.5 1.44-2.22 2.76-2.22h.54v-1.62c-.14-.04-.28-.04-.42-.04-1.42 0-2.4.9-2.94 2v-1.78h-1.54zM50.42 196.26c1.96 0 3.24-.86 3.98-1.98l-1.08-.9c-.58.94-1.58 1.46-2.8 1.46-1.76 0-2.84-1.2-2.98-3.26h7.08c.04-.24.06-.52.06-.78 0-2.82-1.66-4.9-4.32-4.9-2.72 0-4.5 2.02-4.5 5.18 0 3.18 1.74 5.18 4.56 5.18zm-.06-8.94c1.5 0 2.54 1.12 2.64 2.9h-5.44c.24-1.86 1.28-2.9 2.8-2.9zM62.62 196.04h1.6v-8.56h2.18v-1.36h-2.18v-1.44c0-1.1.54-1.6 1.7-1.6h.48v-1.32c-.24-.02-.58-.04-.84-.04-1.96 0-2.94 1.22-2.94 2.94v1.46h-1.7v1.36h1.7zM76.64 186.12h-1.6v6.94c-.3.94-1.22 1.78-2.56 1.78-1.52 0-2.4-.92-2.4-2.7v-6.02h-1.6v6.18c0 2.48 1.3 3.96 3.6 3.96 1.38 0 2.48-.78 3.02-1.56v1.34h1.54zM83.72 196.12c.26 0 .52-.02.72-.06v-1.36h-.28c-1.34 0-1.94-.46-1.94-1.82v-5.4h2.22v-1.36h-2.22v-2.58h-1.58v2.58h-1.8v1.36h1.78v5.4c0 2.24 1.06 3.24 3.1 3.24zM94.9 186.12h-1.6v6.94c-.3.94-1.22 1.78-2.56 1.78-1.52 0-2.4-.92-2.4-2.7v-6.02h-1.6v6.18c0 2.48 1.3 3.96 3.6 3.96 1.38 0 2.48-.78 3.02-1.56v1.34h1.54zM98.18 196.04h1.6v-6.26c.48-1.5 1.44-2.22 2.76-2.22h.54v-1.62c-.14-.04-.28-.04-.42-.04-1.42 0-2.4.9-2.94 2v-1.78h-1.54zM108.94 194.84c-1.84 0-3.02-1.4-3.02-3.76s1.18-3.76 3.02-3.76 3.02 1.4 3.02 3.76-1.18 3.76-3.02 3.76zm0-8.94c-2.84 0-4.68 2.12-4.68 5.18 0 3.06 1.84 5.18 4.68 5.18s4.68-2.12 4.68-5.18c0-3.06-1.84-5.18-4.68-5.18zM124.46 195.66c1.24 0 2.34-.58 3.06-1.52v1.1c0 1.82-.82 3.36-2.94 3.36-1.36 0-2.32-.74-2.8-1.8l-1.2.76c.6 1.32 1.94 2.46 4.06 2.46 3.08 0 4.48-2.28 4.48-4.84v-9.06h-1.54v1.38c-.72-.98-1.86-1.6-3.12-1.6-2.5 0-4.12 2.04-4.12 4.88s1.62 4.88 4.12 4.88zm.36-1.42c-1.76 0-2.82-1.34-2.82-3.46s1.06-3.46 2.82-3.46c1.22 0 2.24.72 2.7 1.74v3.46a2.93 2.93 0 01-2.7 1.72zM135.3 196.26c1.06 0 2.08-.4 2.82-1.2v.98h1.54v-6.26c0-2.3-1.38-3.88-3.98-3.88-1.74 0-2.74.74-3.46 1.5l.92 1.04c.72-.7 1.32-1.12 2.5-1.12 1.64 0 2.42 1.14 2.42 2.58v1c-.72-.76-1.72-1.16-2.76-1.16-2.24 0-3.66 1.46-3.66 3.26 0 1.8 1.42 3.26 3.66 3.26zm.22-1.34c-1.62 0-2.26-1.02-2.26-1.92 0-.9.64-1.92 2.26-1.92.9 0 2.02.36 2.54 1.24v1.36c-.52.9-1.64 1.24-2.54 1.24zM142.82 196.04h1.6v-6.26c.48-1.5 1.44-2.22 2.76-2.22h.54v-1.62c-.14-.04-.28-.04-.42-.04-1.42 0-2.4.9-2.94 2v-1.78h-1.54zM152.46 196.26c1.06 0 2.08-.4 2.82-1.2v.98h1.54v-6.26c0-2.3-1.38-3.88-3.98-3.88-1.74 0-2.74.74-3.46 1.5l.92 1.04c.72-.7 1.32-1.12 2.5-1.12 1.64 0 2.42 1.14 2.42 2.58v1c-.72-.76-1.72-1.16-2.76-1.16-2.24 0-3.66 1.46-3.66 3.26 0 1.8 1.42 3.26 3.66 3.26zm.22-1.34c-1.62 0-2.26-1.02-2.26-1.92 0-.9.64-1.92 2.26-1.92.9 0 2.02.36 2.54 1.24v1.36c-.52.9-1.64 1.24-2.54 1.24zM159.98 196.04h1.6v-6.94c.28-.94 1.22-1.78 2.56-1.78 1.52 0 2.4.92 2.4 2.7v6.02h1.6v-6.18c0-2.48-1.3-3.96-3.6-3.96-1.38 0-2.5.8-3.02 1.58v-1.36h-1.54zM175 196.12c.26 0 .52-.02.72-.06v-1.36h-.28c-1.34 0-1.94-.46-1.94-1.82v-5.4h2.22v-1.36h-2.22v-2.58h-1.58v2.58h-1.8v1.36h1.78v5.4c0 2.24 1.06 3.24 3.1 3.24zM178.14 186.12v9.92h1.6v-9.92zm-.2-4.28v2h2v-2zM186.82 196.12c.26 0 .52-.02.72-.06v-1.36h-.28c-1.34 0-1.94-.46-1.94-1.82v-5.4h2.22v-1.36h-2.22v-2.58h-1.58v2.58h-1.8v1.36h1.78v5.4c0 2.24 1.06 3.24 3.1 3.24zM193.88 194.84c-1.84 0-3.02-1.4-3.02-3.76s1.18-3.76 3.02-3.76 3.02 1.4 3.02 3.76-1.18 3.76-3.02 3.76zm0-8.94c-2.84 0-4.68 2.12-4.68 5.18 0 3.06 1.84 5.18 4.68 5.18s4.68-2.12 4.68-5.18c0-3.06-1.84-5.18-4.68-5.18z"/></g><g fill="#fff"><path d="M1.64 219.8h1.6v-5.08c.72.94 1.86 1.54 3.1 1.54 2.64 0 4.32-2.12 4.32-5.18 0-3.06-1.68-5.18-4.32-5.18-1.28 0-2.44.64-3.16 1.64v-1.42H1.64zM6 214.84c-1.24 0-2.3-.72-2.76-1.78v-3.94a3 3 0 012.76-1.8c1.88 0 3 1.42 3 3.76s-1.12 3.76-3 3.76zM16.22 216.26c1.06 0 2.08-.4 2.82-1.2v.98h1.54v-6.26c0-2.3-1.38-3.88-3.98-3.88-1.74 0-2.74.74-3.46 1.5l.92 1.04c.72-.7 1.32-1.12 2.5-1.12 1.64 0 2.42 1.14 2.42 2.58v1c-.72-.76-1.72-1.16-2.76-1.16-2.24 0-3.66 1.46-3.66 3.26 0 1.8 1.42 3.26 3.66 3.26zm.22-1.34c-1.62 0-2.26-1.02-2.26-1.92 0-.9.64-1.92 2.26-1.92.9 0 2.02.36 2.54 1.24v1.36c-.52.9-1.64 1.24-2.54 1.24zM23.74 216.04h1.6v-6.26c.48-1.5 1.44-2.22 2.76-2.22h.54v-1.62c-.14-.04-.28-.04-.42-.04-1.42 0-2.4.9-2.94 2v-1.78h-1.54zM30.76 206.12v9.92h1.6v-9.92zm-.2-4.28v2h2v-2zM43.24 216.26c1.06 0 2.08-.4 2.82-1.2v.98h1.54v-6.26c0-2.3-1.38-3.88-3.98-3.88-1.74 0-2.74.74-3.46 1.5l.92 1.04c.72-.7 1.32-1.12 2.5-1.12 1.64 0 2.42 1.14 2.42 2.58v1c-.72-.76-1.72-1.16-2.76-1.16-2.24 0-3.66 1.46-3.66 3.26 0 1.8 1.42 3.26 3.66 3.26zm.22-1.34c-1.62 0-2.26-1.02-2.26-1.92 0-.9.64-1.92 2.26-1.92.9 0 2.02.36 2.54 1.24v1.36c-.52.9-1.64 1.24-2.54 1.24zM50.76 201.84v14.2h1.6v-14.2zM55.64 201.84v14.2h1.6v-14.2zM63.42 216.26c1.06 0 2.08-.4 2.82-1.2v.98h1.54v-6.26c0-2.3-1.38-3.88-3.98-3.88-1.74 0-2.74.74-3.46 1.5l.92 1.04c.72-.7 1.32-1.12 2.5-1.12 1.64 0 2.42 1.14 2.42 2.58v1c-.72-.76-1.72-1.16-2.76-1.16-2.24 0-3.66 1.46-3.66 3.26 0 1.8 1.42 3.26 3.66 3.26zm.22-1.34c-1.62 0-2.26-1.02-2.26-1.92 0-.9.64-1.92 2.26-1.92.9 0 2.02.36 2.54 1.24v1.36c-.52.9-1.64 1.24-2.54 1.24zM75.64 216.04h1.6v-6.26c.48-1.5 1.44-2.22 2.76-2.22h.54v-1.62c-.14-.04-.28-.04-.42-.04-1.42 0-2.4.9-2.94 2v-1.78h-1.54zM85.28 216.26c1.06 0 2.08-.4 2.82-1.2v.98h1.54v-6.26c0-2.3-1.38-3.88-3.98-3.88-1.74 0-2.74.74-3.46 1.5l.92 1.04c.72-.7 1.32-1.12 2.5-1.12 1.64 0 2.42 1.14 2.42 2.58v1c-.72-.76-1.72-1.16-2.76-1.16-2.24 0-3.66 1.46-3.66 3.26 0 1.8 1.42 3.26 3.66 3.26zm.22-1.34c-1.62 0-2.26-1.02-2.26-1.92 0-.9.64-1.92 2.26-1.92.9 0 2.02.36 2.54 1.24v1.36c-.52.9-1.64 1.24-2.54 1.24zM96.46 216.12c.26 0 .52-.02.72-.06v-1.36h-.28c-1.34 0-1.94-.46-1.94-1.82v-5.4h2.22v-1.36h-2.22v-2.58h-1.58v2.58h-1.8v1.36h1.78v5.4c0 2.24 1.06 3.24 3.1 3.24zM102.5 216.26c1.06 0 2.08-.4 2.82-1.2v.98h1.54v-6.26c0-2.3-1.38-3.88-3.98-3.88-1.74 0-2.74.74-3.46 1.5l.92 1.04c.72-.7 1.32-1.12 2.5-1.12 1.64 0 2.42 1.14 2.42 2.58v1c-.72-.76-1.72-1.16-2.76-1.16-2.24 0-3.66 1.46-3.66 3.26 0 1.8 1.42 3.26 3.66 3.26zm.22-1.34c-1.62 0-2.26-1.02-2.26-1.92 0-.9.64-1.92 2.26-1.92.9 0 2.02.36 2.54 1.24v1.36c-.52.9-1.64 1.24-2.54 1.24zM115.4 216.04h1.6v-8.56h2.18v-1.36H117v-1.44c0-1.1.54-1.6 1.7-1.6h.48v-1.32c-.24-.02-.58-.04-.84-.04-1.96 0-2.94 1.22-2.94 2.94v1.46h-1.7v1.36h1.7zM121.38 206.12v9.92h1.6v-9.92zm-.2-4.28v2h2v-2zM126.26 216.04h1.6v-6.94c.28-.94 1.22-1.78 2.56-1.78 1.52 0 2.4.92 2.4 2.7v6.02h1.6v-6.18c0-2.48-1.3-3.96-3.6-3.96-1.38 0-2.5.8-3.02 1.58v-1.36h-1.54zM140.48 216.26c1.06 0 2.08-.4 2.82-1.2v.98h1.54v-6.26c0-2.3-1.38-3.88-3.98-3.88-1.74 0-2.74.74-3.46 1.5l.92 1.04c.72-.7 1.32-1.12 2.5-1.12 1.64 0 2.42 1.14 2.42 2.58v1c-.72-.76-1.72-1.16-2.76-1.16-2.24 0-3.66 1.46-3.66 3.26 0 1.8 1.42 3.26 3.66 3.26zm.22-1.34c-1.62 0-2.26-1.02-2.26-1.92 0-.9.64-1.92 2.26-1.92.9 0 2.02.36 2.54 1.24v1.36c-.52.9-1.64 1.24-2.54 1.24zM148 201.84v14.2h1.6v-14.2zM156.82 216.26c1.96 0 3.24-.86 3.98-1.98l-1.08-.9c-.58.94-1.58 1.46-2.8 1.46-1.76 0-2.84-1.2-2.98-3.26h7.08c.04-.24.06-.52.06-.78 0-2.82-1.66-4.9-4.32-4.9-2.72 0-4.5 2.02-4.5 5.18 0 3.18 1.74 5.18 4.56 5.18zm-.06-8.94c1.5 0 2.54 1.12 2.64 2.9h-5.44c.24-1.86 1.28-2.9 2.8-2.9zM168.46 209.48c0 .28 0 .56.02.82h-1.14v1.22h1.28c.56 3.1 2.42 4.74 4.9 4.74 1.5 0 2.76-.66 3.74-1.94l-1.04-1.02c-.68 1-1.56 1.5-2.7 1.5-1.6 0-2.8-1.06-3.22-3.28h4.64v-1.22h-4.8c-.02-.26-.02-.52-.02-.82 0-.28 0-.54.02-.8h4.8v-1.22h-4.64c.42-2.22 1.62-3.3 3.22-3.3 1.14 0 2.02.52 2.7 1.5l1.04-1c-.98-1.28-2.24-1.96-3.74-1.96-2.48 0-4.34 1.66-4.9 4.76h-1.28v1.22h1.14c-.02.26-.02.52-.02.8zM187.74 202.92h-1.24l-3.54 2.18.64 1.24 2.54-1.58v11.28h1.6zM194.88 202.92h-1.24l-3.54 2.18.64 1.24 2.54-1.58v11.28h1.6zM198.3 216.04h2.38v-2.38h-2.38zM210.68 211.1v-8.18h-2.04l-5.96 8.42v1.16h6.4v3.54h1.6v-3.54h2.04v-1.4zm-1.6 0h-4.4l3.38-4.76c.52-.74.98-1.46 1.08-1.74h.06c-.1.68-.12 1.18-.12 2.06zM219.5 216.26c3.18 0 4.9-2.76 4.9-6.78 0-4.02-1.72-6.78-4.9-6.78-3.18 0-4.9 2.76-4.9 6.78 0 4.02 1.72 6.78 4.9 6.78zm0-1.46c-2.26 0-3.24-2.2-3.24-5.32s.98-5.32 3.24-5.32c2.26 0 3.24 2.2 3.24 5.32s-.98 5.32-3.24 5.32zM231.66 216.26c3.18 0 4.9-2.76 4.9-6.78 0-4.02-1.72-6.78-4.9-6.78-3.18 0-4.9 2.76-4.9 6.78 0 4.02 1.72 6.78 4.9 6.78zm0-1.46c-2.26 0-3.24-2.2-3.24-5.32s.98-5.32 3.24-5.32c2.26 0 3.24 2.2 3.24 5.32s-.98 5.32-3.24 5.32z"/></g><g fill="#fff"><path d="M4.52 243.86v12.18h1.66v-12.18h4.08v-1.42H.44v1.42zM9.94 256.04h1.78l1.2-3.42h5.86l1.22 3.42h1.78l-4.98-13.6h-1.86zm5.36-10.16c.3-.8.54-1.58.54-1.88h.06c0 .3.24 1.08.52 1.88l1.86 5.32h-4.86zM24.02 256.04h1.66v-8.9c0-.9-.04-1.76-.12-2.06h.06c.1.28.56 1 1.08 1.72l6.48 9.24h1.46v-13.6h-1.66v8.9c0 .9.04 1.76.12 2.06h-.06c-.1-.28-.56-1-1.08-1.72l-6.48-9.24h-1.46zM47.42 256.26c3.18 0 4.9-2.76 4.9-6.78 0-4.02-1.72-6.78-4.9-6.78-3.18 0-4.9 2.76-4.9 6.78 0 4.02 1.72 6.78 4.9 6.78zm0-1.46c-2.26 0-3.24-2.2-3.24-5.32s.98-5.32 3.24-5.32c2.26 0 3.24 2.2 3.24 5.32s-.98 5.32-3.24 5.32zM55.96 259.38l1.1-3.6v-2.12h-2.52v2.38h1.22l-1.04 3.34zM59.76 254.18c.72 1.12 2.02 2.08 3.8 2.08 3.24 0 5.32-2.66 5.32-7.1 0-3.9-1.64-6.46-4.8-6.46-2.52 0-4.54 1.92-4.54 4.56 0 2.64 1.94 4.54 4.3 4.54 1.64 0 2.78-.8 3.48-1.9-.16 3.18-1.64 4.9-3.76 4.9-1.16 0-2.1-.6-2.68-1.5zm7.16-6.94c0 1.84-1.12 3.1-2.84 3.1-1.74 0-2.88-1.26-2.88-3.1 0-1.8 1.14-3.08 2.88-3.08 1.72 0 2.84 1.28 2.84 3.08zM71.34 254.18c.72 1.12 2.02 2.08 3.8 2.08 3.24 0 5.32-2.66 5.32-7.1 0-3.9-1.64-6.46-4.8-6.46-2.52 0-4.54 1.92-4.54 4.56 0 2.64 1.94 4.54 4.3 4.54 1.64 0 2.78-.8 3.48-1.9-.16 3.18-1.64 4.9-3.76 4.9-1.16 0-2.1-.6-2.68-1.5zm7.16-6.94c0 1.84-1.12 3.1-2.84 3.1-1.74 0-2.88-1.26-2.88-3.1 0-1.8 1.14-3.08 2.88-3.08 1.72 0 2.84 1.28 2.84 3.08zM85.66 256.04h1.4l6.12-13.12H91.8zm-.28-7.06c1.86 0 3.1-1.34 3.1-3.14s-1.24-3.14-3.1-3.14-3.1 1.34-3.1 3.14 1.24 3.14 3.1 3.14zm0-1.22c-1.08 0-1.78-.84-1.78-1.92s.7-1.92 1.78-1.92 1.78.84 1.78 1.92-.7 1.92-1.78 1.92zm8.12 8.5c1.86 0 3.1-1.34 3.1-3.14s-1.24-3.14-3.1-3.14-3.1 1.34-3.1 3.14 1.24 3.14 3.1 3.14zm0-1.22c-1.08 0-1.78-.84-1.78-1.92s.7-1.92 1.78-1.92 1.78.84 1.78 1.92-.7 1.92-1.78 1.92z"/></g><g fill="#fff"><path d="M4.52 263.86v12.18h1.66v-12.18h4.08v-1.42H.44v1.42zM9.94 276.04h1.78l1.2-3.42h5.86l1.22 3.42h1.78l-4.98-13.6h-1.86zm5.36-10.16c.3-.8.54-1.58.54-1.88h.06c0 .3.24 1.08.52 1.88l1.86 5.32h-4.86zM32.3 276.04v-1.42h-6.62v-4.74h5.68v-1.42h-5.68v-4.6h6.62v-1.42h-8.28v13.6zM34.24 269.24c0 4.22 2.48 7.02 6.14 7.02 2 0 3.94-.86 5.24-2.04v-5.42H40.8v1.42h3.16v3.22c-.8.82-2.18 1.34-3.56 1.34-2.74 0-4.44-2.06-4.44-5.54s1.74-5.54 4.46-5.54c1.84 0 3.08 1.1 3.86 2.48l1.36-.9c-1.04-1.78-2.8-3.06-5.24-3.06-3.66 0-6.16 2.8-6.16 7.02zM54 266.32c.4-1.42 1.26-2.16 2.54-2.16 1.7 0 2.46 1 2.46 2.54 0 3.26-4.88 4.76-6.4 8.16v1.18h8.22v-1.42h-6.24c1.16-2.18 6.08-3.98 6.08-7.98 0-2.34-1.54-3.94-4.08-3.94-2.34 0-3.5 1.62-3.9 2.98zM64.76 279.38l1.1-3.6v-2.12h-2.52v2.38h1.22l-1.04 3.34zM76.08 262.92H69.5l-.62 6.44.98.32c.68-.64 1.46-1.02 2.56-1.02 1.6 0 2.74 1.08 2.74 2.98 0 2-1.32 3.16-3.04 3.16-1.52 0-2.42-.84-3.08-1.64l-.96 1.04c.72.9 2 2.06 4.04 2.06 2.72 0 4.7-1.82 4.7-4.62 0-2.9-1.9-4.44-4.3-4.44-.78 0-1.42.22-1.98.5l.34-3.36h5.2zM78.46 262.92v1.42h6.34l-5.12 11.64v.06h1.88l5.1-11.94v-1.18zM91.26 276.04h1.4l6.12-13.12H97.4zm-.28-7.06c1.86 0 3.1-1.34 3.1-3.14s-1.24-3.14-3.1-3.14-3.1 1.34-3.1 3.14 1.24 3.14 3.1 3.14zm0-1.22c-1.08 0-1.78-.84-1.78-1.92s.7-1.92 1.78-1.92 1.78.84 1.78 1.92-.7 1.92-1.78 1.92zm8.12 8.5c1.86 0 3.1-1.34 3.1-3.14s-1.24-3.14-3.1-3.14-3.1 1.34-3.1 3.14 1.24 3.14 3.1 3.14zm0-1.22c-1.08 0-1.78-.84-1.78-1.92s.7-1.92 1.78-1.92 1.78.84 1.78 1.92-.7 1.92-1.78 1.92z"/></g></svg>