<svg width="395.201" height="32.13" viewBox="0 0 395.201 32.13" xmlns="http://www.w3.org/2000/svg"><g fill="#fff"><path d="M2.763 25.768h14.812v-2.634H5.72v-7.069h10.378V13.43H5.72V6.555h11.856V3.92H2.763zM21.334 25.768h2.892V2.956h-2.892zM35.857 26.154c3.085 0 5.527-1.446 7.133-3.599l-1.767-1.831c-1.125 1.67-3.085 2.827-5.237 2.827-3.117 0-5.013-1.895-5.366-4.82h12.595c.064-.449.129-1.06.129-1.51 0-4.465-3.085-7.903-7.712-7.903-4.659 0-7.936 3.438-7.936 8.418 0 4.787 3.245 8.418 8.161 8.418zm-.225-14.298c2.603 0 4.595 1.703 4.788 4.466h-9.768c.45-2.827 2.346-4.466 4.98-4.466zM53.207 25.03c2.25 0 4.049-.965 5.27-2.507v1.318c0 3.79-2.41 5.558-5.205 5.558-2.41 0-4.177-.996-5.334-2.731l-1.896 1.767c1.35 2.185 3.792 3.599 7.326 3.599 4.21 0 8-2.828 8-8.386V9.67h-2.891v2.185c-1.221-1.542-2.988-2.538-5.27-2.538-4.498 0-7.518 3.18-7.518 7.84 0 4.69 3.02 7.871 7.518 7.871zm.579-2.635c-3.053 0-5.141-2.12-5.141-5.238 0-3.084 2.088-5.205 5.14-5.205 2.121 0 3.856 1.125 4.692 2.86v4.723c-.836 1.735-2.57 2.86-4.691 2.86zM78.173 25.768h2.891V9.671h-2.891v2.281c-1.254-1.606-3.213-2.634-5.495-2.634-4.53 0-7.872 3.406-7.872 8.386 0 5.012 3.342 8.418 7.872 8.418 2.282 0 4.241-1.028 5.495-2.635zm-4.98-2.28c-3.02 0-5.43-2.186-5.43-5.784 0-3.567 2.41-5.752 5.43-5.752 2.248 0 4.144 1.19 4.98 2.988v5.591c-.836 1.767-2.732 2.956-4.98 2.956zM85.498 25.768h2.892V15.262c.482-1.767 2.12-3.31 4.53-3.31 2.731 0 4.274 1.639 4.274 4.724v9.092h2.891v-9.382c0-4.37-2.217-7.068-6.394-7.068-2.699 0-4.466 1.381-5.301 2.795V9.671h-2.892zM103.01 25.768h13.205v-2.377h-9.51l9.285-11.6v-2.12h-12.338v2.378h8.61l-9.253 11.599zM131.508 25.768h2.892V9.671h-2.892v2.281c-1.253-1.606-3.213-2.634-5.494-2.634-4.53 0-7.872 3.406-7.872 8.386 0 5.012 3.342 8.418 7.872 8.418 2.281 0 4.241-1.028 5.494-2.635zm-4.98-2.28c-3.02 0-5.43-2.186-5.43-5.784 0-3.567 2.41-5.752 5.43-5.752 2.25 0 4.145 1.19 4.98 2.988v5.591c-.835 1.767-2.73 2.956-4.98 2.956zM160.811 9.671h-2.892v10.507c-.482 1.767-2.12 3.31-4.53 3.31-2.731 0-4.273-1.64-4.273-4.724V9.671h-2.892v9.382c0 4.37 2.217 7.069 6.394 7.069 2.699 0 4.466-1.382 5.301-2.796v2.442h2.892zM165.245 25.768h2.892V15.744c.867-2.506 2.827-3.567 5.43-3.631V9.318h-.354c-2.474 0-4.177 1.35-5.076 3.116V9.671h-2.892zM179.157 23.487c1.254 1.607 3.213 2.635 5.495 2.635 4.53 0 7.872-3.406 7.872-8.418 0-4.98-3.342-8.386-7.872-8.386-2.282 0-4.241 1.028-5.495 2.634V2.956h-2.891v22.812h2.891zm4.98 0c-2.249 0-4.144-1.22-4.98-3.02v-5.462c.836-1.832 2.731-3.053 4.98-3.053 3.02 0 5.43 2.153 5.43 5.752 0 3.63-2.41 5.783-5.43 5.783zM208.332 25.768h2.891V9.671h-2.891v2.281c-1.254-1.606-3.213-2.634-5.495-2.634-4.53 0-7.872 3.406-7.872 8.386 0 5.012 3.342 8.418 7.872 8.418 2.282 0 4.241-1.028 5.495-2.635zm-4.98-2.28c-3.02 0-5.43-2.186-5.43-5.784 0-3.567 2.41-5.752 5.43-5.752 2.249 0 4.144 1.19 4.98 2.988v5.591c-.836 1.767-2.731 2.956-4.98 2.956zM215.657 25.768h2.892V15.262c.482-1.767 2.12-3.31 4.53-3.31 2.731 0 4.274 1.639 4.274 4.724v9.092h2.891v-9.382c0-4.37-2.217-7.068-6.394-7.068-2.699 0-4.466 1.381-5.301 2.795V9.671h-2.892zM234.26 25.768h3.824v-3.823h-3.823z"/></g></svg>