<svg width="395.201" height="48.195" viewBox="0 0 395.201 48.195" xmlns="http://www.w3.org/2000/svg"><g fill="#fff"><path d="M2.853 30.922h5.012V19.856H20.86v11.066h5.012V4.704H20.86V15.5H7.865V4.704H2.853zM32.657 37.592h5.282l11.644-26.526h-5.282L39.404 22.94l-5.282-11.875H28.88l7.942 17.311zM70.442 11.066h-4.896v12.492c-.502 1.812-2.121 3.47-4.55 3.47-2.892 0-4.395-1.658-4.395-4.82V11.066h-4.897v11.682c0 5.09 2.39 8.637 7.557 8.637 3.084 0 5.205-1.465 6.285-3.239v2.776h4.896zM75.069 30.922h4.897V18.43c.5-1.812 2.12-3.47 4.55-3.47 2.89 0 4.395 1.658 4.395 4.82v11.142h4.896V19.24c0-5.09-2.39-8.637-7.557-8.637-3.084 0-5.205 1.465-6.284 3.239v-2.776h-4.897zM112.893 30.922h4.896V3.547h-4.896v9.832c-1.466-1.658-3.625-2.776-6.208-2.776-5.514 0-9.562 4.125-9.562 10.41s4.048 10.372 9.562 10.372c2.583 0 4.742-1.08 6.208-2.738zm-5.128-3.894c-3.2 0-5.668-2.198-5.668-6.015 0-3.855 2.467-6.053 5.668-6.053 2.197 0 4.24 1.118 5.128 3.007v6.092c-.887 1.85-2.93 2.969-5.128 2.969zM137.144 30.922h4.897V11.066h-4.897v2.313c-1.465-1.658-3.624-2.776-6.207-2.776-5.514 0-9.562 4.125-9.562 10.41s4.048 10.372 9.562 10.372c2.583 0 4.742-1.08 6.207-2.738zm-5.128-3.894c-3.2 0-5.667-2.198-5.667-6.015 0-3.855 2.467-6.053 5.667-6.053 2.198 0 4.242 1.118 5.128 3.007v6.092c-.886 1.85-2.93 2.969-5.128 2.969zM146.706 30.922h4.897V11.066h-4.897zm-.077-23.21h5.013v-5.09h-5.013zM165.098 30.922h11.952c6.092 0 9.408-2.737 9.408-7.48 0-3.547-2.044-5.59-4.974-6.516 1.928-1.195 3.007-3.084 3.007-5.243 0-4.396-3.277-6.98-8.56-6.98h-10.833zm5.012-4.164v-7.094h6.747c3.046 0 4.434 1.31 4.434 3.547 0 2.236-1.388 3.547-4.434 3.547zm0-11.258V8.868h5.166c2.93 0 4.049 1.31 4.049 3.316 0 2.005-1.118 3.316-4.049 3.316zM187.152 30.922h5.205l2.12-5.552h11.683l2.12 5.552h5.206L203.268 4.704h-5.899zm13.147-20.859l4.165 10.95h-8.329zM220.31 30.922h5.012v-10.95l9.832-15.152v-.116h-5.86l-6.478 10.333-6.477-10.333h-5.86v.116l9.831 15.152zM247.993 31.462c7.75 0 13.34-5.822 13.34-13.649 0-7.827-5.59-13.649-13.34-13.649s-13.34 5.822-13.34 13.649c0 7.827 5.59 13.649 13.34 13.649zm0-22.633c5.051 0 8.174 3.895 8.174 8.984 0 5.09-3.123 8.984-8.174 8.984-5.05 0-8.173-3.895-8.173-8.984 0-5.09 3.123-8.984 8.173-8.984zM265.537 30.922h5.012v-17.89l14.304 17.89h4.357V4.704h-5.012v17.89l-14.266-17.89h-4.395z"/></g></svg>