<svg width="24" height="24" viewBox="0 0 24 24" fill="none" xmlns="http://www.w3.org/2000/svg">
<path fill-rule="evenodd" clip-rule="evenodd" d="M14.139 2.63L17.207 1.189L17.993 4.486L21.383 4.518L20.661 7.83L23.699 9.33L21.612 12.001L23.699 14.671L20.661 16.17L21.383 19.482L17.993 19.515L17.207 22.811L14.139 21.37L12 24L9.86203 21.37L6.79403 22.811L6.00703 19.515L2.61803 19.482L3.34003 16.17L0.301025 14.671L2.38903 12.001L0.301025 9.33L3.34003 7.83L2.61803 4.518L6.00703 4.486L6.79403 1.189L9.86203 2.63L12 0L14.139 2.63ZM10.397 4.972L8.09403 3.891L7.50403 6.365L4.96203 6.389L5.50403 8.872L3.22503 9.997L4.79103 12.001L3.22503 14.003L5.50403 15.127L4.96203 17.612L7.50403 17.637L8.09403 20.109L10.397 19.028L12 21L13.604 19.028L15.905 20.109L16.495 17.637L19.038 17.612L18.496 15.127L20.775 14.003L19.21 12.001L20.775 9.997L18.496 8.872L19.038 6.389L16.495 6.365L15.905 3.891L13.604 4.972L12 3L10.397 4.972ZM12 14.5C12.69 14.5 13.25 15.06 13.25 15.75C13.25 16.44 12.69 17 12 17C11.31 17 10.75 16.44 10.75 15.75C10.75 15.06 11.31 14.5 12 14.5ZM13 13.553H11V7H13V13.553Z" fill="#3179C5"/>
</svg>
